<?xml version="1.0" encoding="UTF-8"?>
<svg xmlns="http://www.w3.org/2000/svg" xmlns:xlink="http://www.w3.org/1999/xlink" width="854" height="480" viewBox="0 0 854 480">
<defs>
<g>
<g id="glyph-0-0">
<path d="M 3.875 -0.136719 C 4.625 -0.136719 5.140625 -0.582031 5.421875 -1.46875 C 5.570312 -1.953125 5.644531 -2.578125 5.644531 -3.355469 C 5.644531 -4.417969 5.484375 -5.222656 5.167969 -5.761719 C 4.851562 -6.300781 4.421875 -6.570312 3.875 -6.570312 C 3.121094 -6.570312 2.605469 -6.121094 2.324219 -5.21875 C 2.179688 -4.742188 2.105469 -4.121094 2.105469 -3.355469 C 2.105469 -2.578125 2.179688 -1.949219 2.328125 -1.46875 C 2.605469 -0.582031 3.121094 -0.136719 3.875 -0.136719 Z M 3.875 -6.910156 C 4.886719 -6.910156 5.722656 -6.582031 6.390625 -5.933594 C 7.078125 -5.265625 7.421875 -4.40625 7.421875 -3.355469 C 7.421875 -2.195312 7.011719 -1.28125 6.195312 -0.605469 C 5.882812 -0.332031 5.445312 -0.105469 4.882812 0.0742188 C 5.027344 0.429688 5.257812 0.726562 5.574219 0.953125 C 5.890625 1.183594 6.238281 1.296875 6.617188 1.296875 C 6.746094 1.296875 6.855469 1.289062 6.945312 1.273438 C 7.035156 1.253906 7.148438 1.222656 7.289062 1.179688 L 7.347656 1.425781 C 7.011719 1.5625 6.644531 1.660156 6.242188 1.71875 C 5.984375 1.757812 5.75 1.777344 5.539062 1.777344 C 4.976562 1.777344 4.421875 1.636719 3.882812 1.359375 C 3.34375 1.078125 2.972656 0.671875 2.765625 0.140625 C 2.738281 0.0742188 2.71875 0.03125 2.703125 0.0195312 C 2.691406 0.0078125 2.644531 -0.0117188 2.5625 -0.0390625 C 2.140625 -0.191406 1.738281 -0.4375 1.363281 -0.78125 C 0.667969 -1.453125 0.320312 -2.300781 0.320312 -3.316406 C 0.320312 -4.34375 0.644531 -5.195312 1.292969 -5.867188 C 1.957031 -6.5625 2.820312 -6.910156 3.875 -6.910156 Z "/>
</g>
<g id="glyph-0-1">
<path d="M 2.046875 -4.605469 L 2.046875 -1.210938 C 2.046875 -1.007812 2.070312 -0.859375 2.117188 -0.765625 C 2.203125 -0.601562 2.371094 -0.515625 2.621094 -0.515625 C 2.78125 -0.515625 2.9375 -0.566406 3.089844 -0.667969 C 3.179688 -0.722656 3.289062 -0.816406 3.421875 -0.945312 L 3.421875 -3.785156 C 3.421875 -3.992188 3.382812 -4.136719 3.296875 -4.222656 C 3.214844 -4.304688 3.046875 -4.351562 2.796875 -4.359375 L 2.796875 -4.605469 L 4.789062 -4.605469 L 4.789062 -1.007812 C 4.789062 -0.796875 4.828125 -0.652344 4.90625 -0.574219 C 4.984375 -0.492188 5.136719 -0.445312 5.367188 -0.425781 L 5.367188 -0.195312 C 4.75 -0.136719 4.359375 -0.09375 4.195312 -0.0664062 C 4.035156 -0.0390625 3.777344 0.03125 3.421875 0.140625 L 3.421875 -0.515625 C 3.183594 -0.3125 2.988281 -0.167969 2.832031 -0.0820312 C 2.558594 0.0664062 2.273438 0.140625 1.976562 0.140625 C 1.65625 0.140625 1.355469 0.0390625 1.078125 -0.164062 C 0.796875 -0.371094 0.660156 -0.734375 0.660156 -1.257812 L 0.660156 -3.785156 C 0.660156 -3.996094 0.625 -4.132812 0.554688 -4.199219 C 0.488281 -4.265625 0.355469 -4.316406 0.160156 -4.359375 L 0.160156 -4.605469 Z "/>
</g>
<g id="glyph-0-2">
<path d="M 0.226562 -2.296875 C 0.226562 -3.0625 0.429688 -3.660156 0.835938 -4.085938 C 1.246094 -4.507812 1.738281 -4.722656 2.3125 -4.722656 C 2.640625 -4.722656 2.953125 -4.636719 3.242188 -4.460938 C 3.53125 -4.289062 3.753906 -4.050781 3.910156 -3.746094 C 4.027344 -3.515625 4.109375 -3.214844 4.15625 -2.847656 C 4.179688 -2.675781 4.1875 -2.542969 4.1875 -2.453125 L 1.640625 -2.453125 C 1.664062 -2.050781 1.726562 -1.703125 1.835938 -1.410156 C 2.03125 -0.859375 2.375 -0.585938 2.867188 -0.585938 C 3.101562 -0.585938 3.320312 -0.660156 3.53125 -0.804688 C 3.65625 -0.894531 3.816406 -1.042969 4.003906 -1.25 L 4.234375 -1.109375 C 3.925781 -0.601562 3.566406 -0.246094 3.160156 -0.046875 C 2.894531 0.078125 2.59375 0.140625 2.25 0.140625 C 1.757812 0.140625 1.296875 -0.0507812 0.867188 -0.4375 C 0.4375 -0.828125 0.226562 -1.445312 0.226562 -2.296875 Z M 2.960938 -2.820312 C 2.953125 -3.410156 2.90625 -3.824219 2.820312 -4.058594 C 2.738281 -4.292969 2.570312 -4.410156 2.3125 -4.410156 C 2.054688 -4.410156 1.875 -4.273438 1.78125 -4.003906 C 1.683594 -3.734375 1.628906 -3.339844 1.617188 -2.820312 Z "/>
</g>
</g>
</defs>
<g fill="rgb(95.686275%, 63.529412%, 34.901961%)" fill-opacity="1">
<use xlink:href="#glyph-0-0" x="30" y="27.5"/>
<use xlink:href="#glyph-0-1" x="38" y="27.5"/>
<use xlink:href="#glyph-0-2" x="44" y="27.5"/>
<use xlink:href="#glyph-0-1" x="48" y="27.5"/>
<use xlink:href="#glyph-0-2" x="54" y="27.5"/>
</g>
</svg>
